<mxfile host="app.diagrams.net" modified="2024-04-15T10:41:17.906Z" agent="Mozilla/5.0 (Macintosh; Intel Mac OS X 10_15_7) AppleWebKit/537.36 (KHTML, like Gecko) Chrome/123.0.0.0 Safari/537.36 Edg/123.0.0.0" version="24.0.5" etag="7NGiC3oSxn3kIxzswGM5" type="github">
  <diagram name="第 1 页" id="DiORePuyu-r7EQy5id9b">
    <mxGraphModel>
      <root>
        <mxCell id="0" />
        <mxCell id="1" parent="0" />
      </root>
    </mxGraphModel>
  </diagram>
</mxfile>
